<svg width="900" height="700" viewBox="0 0 900 700" xmlns="http://www.w3.org/2000/svg" font-family="Arial">

  <defs>
    <marker id="arrow" markerWidth="10" markerHeight="10" refX="6" refY="3" orient="auto">
      <path d="M0,0 L0,6 L9,3 z" fill="#4CAF50"/>
    </marker>
  </defs>

  <style>
    .box { fill: #ffffff; stroke: #4CAF50; stroke-width: 2; rx: 10; }
    .title { font-size: 14px; font-weight: bold; fill: #333; }
    .text { font-size: 12px; fill: #333; }
    .line { stroke: #4CAF50; stroke-width: 2; marker-end: url(#arrow); }
  </style>

  <!-- Top Layer -->
  <rect x="300" y="20" width="300" height="60" class="box"/>
  <text x="450" y="50" text-anchor="middle" class="title">Quality Governance</text>
  <text x="450" y="68" text-anchor="middle" class="text">Standards · KPIs · Dashboards · Alerts</text>

  <!-- GitHub -->
  <rect x="50" y="130" width="250" height="80" class="box"/>
  <text x="175" y="165" text-anchor="middle" class="title">GitHub</text>
  <text x="175" y="185" text-anchor="middle" class="text">Actions · Copilot · Cline</text>

  <!-- AI Test Factory -->
  <rect x="350" y="130" width="250" height="80" class="box"/>
  <text x="475" y="165" text-anchor="middle" class="title">AI Test Factory</text>
  <text x="475" y="185" text-anchor="middle" class="text">Workflows · MCPs · Generators</text>

  <!-- Jira Xray -->
  <rect x="650" y="130" width="200" height="80" class="box"/>
  <text x="750" y="165" text-anchor="middle" class="title">Jira + Xray</text>
  <text x="750" y="185" text-anchor="middle" class="text">Tests · Plans · Executions</text>

  <!-- Test Repo -->
  <rect x="350" y="260" width="250" height="80" class="box"/>
  <text x="475" y="300" text-anchor="middle" class="title">Test Repositories</text>
  <text x="475" y="320" text-anchor="middle" class="text">Automation Code · Standards</text>

  <!-- CI/CD -->
  <rect x="350" y="390" width="250" height="80" class="box"/>
  <text x="475" y="430" text-anchor="middle" class="title">CI/CD Pipelines</text>
  <text x="475" y="450" text-anchor="middle" class="text">GitHub Actions · Test Execution</text>

  <!-- Webhooks -->
  <rect x="350" y="520" width="250" height="70" class="box"/>
  <text x="475" y="555" text-anchor="middle" class="title">Webhooks</text>

  <!-- Database -->
  <rect x="100" y="520" width="200" height="70" class="box"/>
  <text x="200" y="555" text-anchor="middle" class="title">QA Database</text>

  <!-- Retool -->
  <rect x="650" y="520" width="200" height="70" class="box"/>
  <text x="750" y="555" text-anchor="middle" class="title">Retool</text>
  <text x="750" y="575" text-anchor="middle" class="text">Dashboards · Jiras · KPIs</text>

  <!-- Connections -->
  <line x1="300" y1="170" x2="350" y2="170" class="line"/>
  <line x1="600" y1="170" x2="650" y2="170" class="line"/>
  <line x1="475" y1="210" x2="475" y2="260" class="line"/>
  <line x1="475" y1="340" x2="475" y2="390" class="line"/>
  <line x1="475" y1="470" x2="475" y2="520" class="line"/>
  <line x1="350" y1="555" x2="300" y2="555" class="line"/>
  <line x1="600" y1="555" x2="650" y2="555" class="line"/>

</svg>
