<svg width="900" height="700" viewBox="0 0 900 700" xmlns="http://www.w3.org/2000/svg" font-family="Arial">

  <defs>
    <marker id="arrow" markerWidth="10" markerHeight="10" refX="6" refY="3" orient="auto">
      <path d="M0,0 L0,6 L9,3 z" fill="#4CAF50"/>
    </marker>
  </defs>

  <style>
    .box {
      fill: #ffffff;
      stroke: #4CAF50;
      stroke-width: 2;
      rx: 10;
      vector-effect: non-scaling-stroke;
    }
    .title { font-size: 14px; font-weight: bold; fill: #333; }
    .text { font-size: 12px; fill: #333; }
    .line { stroke: #4CAF50; stroke-width: 2; marker-end: url(#arrow); }
  </style>

  <!-- GRID CENTER = 450 -->

  <!-- Top Governance -->
  <rect x="300" y="30" width="300" height="60" class="box"/>
  <text x="450" y="58" text-anchor="middle" class="title">Quality Governance</text>
  <text x="450" y="76" text-anchor="middle" class="text">Standards · KPIs · Dashboards · Alerts</text>

  <!-- Row 1 -->
  <rect x="70" y="140" width="240" height="80" class="box"/>
  <text x="190" y="175" text-anchor="middle" class="title">GitHub</text>
  <text x="190" y="195" text-anchor="middle" class="text">Actions · Copilot · Cline</text>

  <rect x="330" y="140" width="240" height="80" class="box"/>
  <text x="450" y="175" text-anchor="middle" class="title">AI Test Factory</text>
  <text x="450" y="195" text-anchor="middle" class="text">Workflows · MCPs · Generators</text>

  <rect x="590" y="140" width="240" height="80" class="box"/>
  <text x="710" y="175" text-anchor="middle" class="title">Jira + Xray</text>
  <text x="710" y="195" text-anchor="middle" class="text">Tests · Plans · Executions</text>

  <!-- Test Repo -->
  <rect x="330" y="280" width="240" height="80" class="box"/>
  <text x="450" y="315" text-anchor="middle" class="title">Test Repositories</text>
  <text x="450" y="335" text-anchor="middle" class="text">Automation Code · Standards</text>

  <!-- CI/CD -->
  <rect x="330" y="410" width="240" height="80" class="box"/>
  <text x="450" y="445" text-anchor="middle" class="title">CI/CD Pipelines</text>
  <text x="450" y="465" text-anchor="middle" class="text">GitHub Actions · Execution</text>

  <!-- Webhooks -->
  <rect x="330" y="540" width="240" height="70" class="box"/>
  <text x="450" y="580" text-anchor="middle" class="title">Webhooks</text>

  <!-- Database -->
  <rect x="90" y="540" width="220" height="70" class="box"/>
  <text x="200" y="580" text-anchor="middle" class="title">QA Database</text>

  <!-- Retool -->
  <rect x="590" y="540" width="220" height="70" class="box"/>
  <text x="700" y="570" text-anchor="middle" class="title">Retool</text>
  <text x="700" y="590" text-anchor="middle" class="text">Dashboards · KPIs · Jiras</text>

  <!-- Connections -->
  <line x1="310" y1="180" x2="330" y2="180" class="line"/>
  <line x1="570" y1="180" x2="590" y2="180" class="line"/>

  <line x1="450" y1="220" x2="450" y2="280" class="line"/>
  <line x1="450" y1="360" x2="450" y2="410" class="line"/>
  <line x1="450" y1="490" x2="450" y2="540" class="line"/>

  <line x1="330" y1="575" x2="310" y2="575" class="line"/>
  <line x1="570" y1="575" x2="590" y2="575" class="line"/>

</svg>
